<svg width="32" height="32" viewBox="0 0 32 32" fill="none" xmlns="http://www.w3.org/2000/svg">
  <path fill-rule="evenodd" clip-rule="evenodd" d="M6 0C2.68629 0 0 2.68629 0 6V26C0 29.3137 2.68629 32 6 32H26C29.3137 32 32 29.3137 32 26V6C32 2.68629 29.3137 0 26 0H6ZM11.2 13.6C11.2 13.0477 11.6477 12.6 12.2 12.6C12.7523 12.6 13.2 13.0477 13.2 13.6C13.2 14.1523 12.7523 14.6 12.2 14.6H11.2V18.4C11.2 18.9523 10.7523 19.4 10.2 19.4C9.64772 19.4 9.2 18.9523 9.2 18.4V14.6H9.6C9.04772 14.6 8.6 14.1523 8.6 13.6C8.6 13.0477 9.04772 12.6 9.6 12.6H10.2C10.7523 12.6 11.2 13.0477 11.2 13.6ZM15.2 13.6C15.2 13.0477 15.6477 12.6 16.2 12.6C16.7523 12.6 17.2 13.0477 17.2 13.6V14.2H16.2C15.6477 14.2 15.2 14.6477 15.2 15.2C15.2 15.7523 15.6477 16.2 16.2 16.2H17.2C17.7523 16.2 18.2 15.7523 18.2 15.2C18.2 14.6477 17.7523 14.2 17.2 14.2H17.6C18.1523 14.2 18.6 14.6477 18.6 15.2C18.6 15.7523 18.1523 16.2 17.6 16.2H16.2V18.4C16.2 18.9523 15.7523 19.4 15.2 19.4C14.6477 19.4 14.2 18.9523 14.2 18.4V13.6H15.2ZM21.6 13.6C22.1523 13.6 22.6 13.1523 22.6 12.6C22.6 12.0477 22.1523 11.6 21.6 11.6C21.0477 11.6 20.6 12.0477 20.6 12.6L19 15C18.6686 15.4978 18.7256 16.1612 19.1322 16.5964C19.5388 17.0316 20.2061 17.1375 20.7246 16.8493L22.6 18.4C23.1523 18.4 23.6 17.9523 23.6 17.4C23.6 16.8477 23.1523 16.4 22.6 16.4L21 14C21.3314 13.5022 21.2744 12.8388 20.8678 12.4036C20.4612 11.9684 19.7939 11.8625 19.2754 12.1507L21.6 13.6Z" fill="black"/>
</svg> 