<svg width="120" height="40" viewBox="0 0 120 40" fill="none" xmlns="http://www.w3.org/2000/svg">
  <path d="M12 8H28C32.4183 8 36 11.5817 36 16V24C36 28.4183 32.4183 32 28 32H12C7.58172 32 4 28.4183 4 24V16C4 11.5817 7.58172 8 12 8Z" fill="url(#paint0_linear)"/>
  <path d="M14 17V23M14 17H16M14 17H12M19 17V19M19 19V23M19 19H17M19 19H22M26 17L24 20L26 23" stroke="white" stroke-width="2" stroke-linecap="round" stroke-linejoin="round"/>
  <path d="M44 16.5H46.88V28H44V16.5ZM49.3506 16.5V28H51.9931V23.25H55.5006V28H58.1431V16.5H55.5006V21H51.9931V16.5H49.3506ZM59.7572 16.5H65.7197C66.5739 16.5 67.3156 16.6562 67.9447 16.9688C68.5739 17.2812 69.0583 17.7188 69.3981 18.2812C69.7447 18.8438 69.918 19.5 69.918 20.25C69.918 21 69.7447 21.6562 69.3981 22.2188C69.0583 22.7812 68.5739 23.2188 67.9447 23.5312C67.3156 23.8438 66.5739 24 65.7197 24H62.3997V28H59.7572V16.5ZM65.5772 21.75C66.0347 21.75 66.3981 21.6406 66.6672 21.4219C66.9364 21.1875 67.0708 20.8438 67.0708 20.3906C67.0708 19.9531 66.9364 19.625 66.6672 19.4062C66.3981 19.1719 66.0347 19.0547 65.5772 19.0547H62.3997V21.75H65.5772ZM71.5183 16.5H79.5652V19.0547H74.1608V21H78.9362V23.4453H74.1608V25.4453H79.6139V28H71.5183V16.5ZM87.1881 28L84.9225 23.75H83.7037V28H81.0613V16.5H87.2369C88.0911 16.5 88.8328 16.6562 89.4619 16.9688C90.0911 17.2812 90.5755 17.7188 90.9153 18.2812C91.2619 18.8438 91.4351 19.5 91.4351 20.25C91.4351 21.125 91.1881 21.8672 90.6939 22.4766C90.2067 23.0859 89.505 23.5 88.5887 23.7188L91.1881 28H87.1881ZM87.045 20.3906C87.045 19.9531 86.9106 19.625 86.6415 19.4062C86.3723 19.1719 86.0089 19.0547 85.5515 19.0547H83.7037V21.7266H85.5515C86.0089 21.7266 86.3723 21.6094 86.6415 21.375C86.9106 21.1406 87.045 20.8125 87.045 20.3906ZM97.0848 16.5V22.9922C97.0848 23.5391 97.1989 24 97.427 24.375C97.6645 24.75 97.9859 25.0312 98.391 25.2188C98.8016 25.3906 99.2755 25.4766 99.8129 25.4766C100.363 25.4766 100.844 25.3906 101.255 25.2188C101.666 25.0312 101.984 24.75 102.21 24.375C102.438 24 102.552 23.5391 102.552 22.9922V16.5H105.194V22.9453C105.194 24.0391 104.948 24.9609 104.455 25.7109C103.963 26.4609 103.301 27.0312 102.467 27.4219C101.644 27.8125 100.769 28.0078 99.844 28.0078C98.906 28.0078 98.0223 27.8125 97.1989 27.4219C96.3754 27.0312 95.7192 26.4609 95.2301 25.7109C94.741 24.9609 94.4965 24.0391 94.4965 22.9453V16.5H97.0848Z" fill="white"/>
  <defs>
    <linearGradient id="paint0_linear" x1="4" y1="8" x2="36" y2="32" gradientUnits="userSpaceOnUse">
      <stop stop-color="#3A86FF"/>
      <stop offset="1" stop-color="#2563EB"/>
    </linearGradient>
  </defs>
</svg> 