<svg width="180" height="180" viewBox="0 0 180 180" fill="none" xmlns="http://www.w3.org/2000/svg">
  <rect width="180" height="180" rx="40" fill="#121212"/>
  <path d="M90 22.5C101.25 22.5 110 31.25 110 42.5C110 53.75 101.25 62.5 90 62.5C78.75 62.5 70 53.75 70 42.5C70 31.25 78.75 22.5 90 22.5Z" fill="#e63946"/>
  <path d="M90 62.5C101.25 62.5 110 71.25 110 82.5C110 93.75 101.25 102.5 90 102.5C78.75 102.5 70 93.75 70 82.5C70 71.25 78.75 62.5 90 62.5Z" fill="#ff4444"/>
  <path d="M90 102.5C101.25 102.5 110 111.25 110 122.5C110 133.75 101.25 142.5 90 142.5C78.75 142.5 70 133.75 70 122.5C70 111.25 78.75 102.5 90 102.5Z" fill="#dc2626"/>
  <path d="M90 142.5C101.25 142.5 110 151.25 110 162.5C110 173.75 101.25 182.5 90 182.5C78.75 182.5 70 173.75 70 162.5C70 151.25 78.75 142.5 90 142.5Z" fill="#b91c1c"/>
  <path d="M90 182.5C101.25 182.5 110 191.25 110 202.5C110 213.75 101.25 222.5 90 222.5C78.75 222.5 70 213.75 70 202.5C70 191.25 78.75 182.5 90 182.5Z" fill="#991b1b"/>
  <path d="M90 222.5C101.25 222.5 110 231.25 110 242.5C110 253.75 101.25 262.5 90 262.5C78.75 262.5 70 253.75 70 242.5C70 231.25 78.75 222.5 90 222.5Z" fill="#7f1d1d"/>
</svg>
