<svg width="32" height="32" viewBox="0 0 32 32" fill="none" xmlns="http://www.w3.org/2000/svg">
  <rect width="32" height="32" rx="6" fill="#121212"/>
  <path d="M16 4C17.1 4 18 4.9 18 6C18 7.1 17.1 8 16 8C14.9 8 14 7.1 14 6C14 4.9 14.9 4 16 4Z" fill="#e63946"/>
  <path d="M16 8C17.1 8 18 8.9 18 10C18 11.1 17.1 12 16 12C14.9 12 14 11.1 14 10C14 8.9 14.9 8 16 8Z" fill="#ff4444"/>
  <path d="M16 12C17.1 12 18 12.9 18 14C18 15.1 17.1 16 16 16C14.9 16 14 15.1 14 14C14 12.9 14.9 12 16 12Z" fill="#dc2626"/>
  <path d="M16 16C17.1 16 18 16.9 18 18C18 19.1 17.1 20 16 20C14.9 20 14 19.1 14 18C14 16.9 14.9 16 16 16Z" fill="#b91c1c"/>
  <path d="M16 20C17.1 20 18 20.9 18 22C18 23.1 17.1 24 16 24C14.9 24 14 23.1 14 22C14 20.9 14.9 20 16 20Z" fill="#991b1b"/>
  <path d="M16 24C17.1 24 18 24.9 18 26C18 27.1 17.1 28 16 28C14.9 28 14 27.1 14 26C14 24.9 14.9 24 16 24Z" fill="#7f1d1d"/>
</svg>
