<svg width="16" height="16" viewBox="0 0 16 16" fill="none" xmlns="http://www.w3.org/2000/svg">
  <path d="M8 2C8.55 2 9 2.45 9 3C9 3.55 8.55 4 8 4C7.45 4 7 3.55 7 3C7 2.45 7.45 2 8 2Z" fill="#000000"/>
  <path d="M8 4C8.55 4 9 4.45 9 5C9 5.55 8.55 6 8 6C7.45 6 7 5.55 7 5C7 4.45 7.45 4 8 4Z" fill="#000000"/>
  <path d="M8 6C8.55 6 9 6.45 9 7C9 7.55 8.55 8 8 8C7.45 8 7 7.55 7 7C7 6.45 7.45 6 8 6Z" fill="#000000"/>
  <path d="M8 8C8.55 8 9 8.45 9 9C9 9.55 8.55 10 8 10C7.45 10 7 9.55 7 9C7 8.45 7.45 8 8 8Z" fill="#000000"/>
  <path d="M8 10C8.55 10 9 10.45 9 11C9 11.55 8.55 12 8 12C7.45 12 7 11.55 7 11C7 10.45 7.45 10 8 10Z" fill="#000000"/>
  <path d="M8 12C8.55 12 9 12.45 9 13C9 13.55 8.55 14 8 14C7.45 14 7 13.55 7 13C7 12.45 7.45 12 8 12Z" fill="#000000"/>
</svg>
